/* XPM */
static char *sunclock[] = {
/* columns rows colors chars-per-pixel */
"32 32 18 1",
"  c black",
". c #191919",
"X c gray20",
"o c #00007f",
"O c #007f00",
"+ c #007f7f",
"@ c #7f007f",
"# c #7f7f00",
"$ c #4c4c4c",
"% c #666667",
"& c gray50",
"* c blue",
"= c green",
"- c yellow",
"; c gray60",
": c #b2b2b2",
"> c gray90",
", c white",
/* pixels */
"o$@oXXo..o..o...o..o.....       ",
"ooo$oX.oXooXo.X.....o.......... ",
"$$ooooXooXoXX,,,o.o.X..oo.. ..  ",
"ooo$$XoXXo$o,oXo,.oX.o.....o... ",
"o@@*o$oooo%,ooXo..XXo...o..o... ",
"oo+o*$@X$oo,$$oXooo..oo.....o . ",
"*%@+ooo$o$@o,oXo$o$XooXX.o..o.o ",
"*o*o%$ooo$oXo,,ooXooXX.ooXo.....",
"&@*+*%o@*@ooooo,,oo$,oXo,XX,,,,.",
"*o@*oo%oo+*%%o$oo,$o,XoX,o.,o.,.",
"*@o**$o@$*o%%oo@X,Xo,XXo,oX,.o,.",
"***%%*o+*o,ooo$oo,oX,ooX,Xo,X.,.",
"&*@o*****@@,o$o,,oo$X,o,o@o,oo,.",
"&****--#-**o,,,,o$Xoo,,,XoX,oX,.",
"*&*---;---#+*+*X*Xo@$ooXoXXX.o..",
"**:------:-;*@*$$ooXoo$oXooXo$oo",
"**-------#---**&*&*X%$oX***&%%O&",
"*-;-;#-----:--**o**o***%&#$%%O&=",
"---#-#-;;----;-*;****+#%#=&==##%",
"O$,,,,=#+,=#+#O,+#;#%,,,+#,%%%,=",
"&,,%%=,+#,#%&#,,,%%%,#%=+#,=%,%#",
"=,+#%%%#+,%=O,+##,=%,+%%#%,#=,#+",
"#,#=#=&=#,#=#,%&+,%#,%==+#,%,==&",
",+#&%=%#+,%&+,#=#,=%,#%#&=,,,#+#",
",%+#=#=&=,$+#,+#O,#+,&+#&=,#,#=&",
",=#%%%=%$,%#%,#&&,&#,=#%%#,%,++#",
",%O%=%%%#,%&=,#==,=%,#%=%#,=#,#&",
",#&=%%=#%,==%,+##,%#,+&==%,%+,%=",
"%,#+#=&&#,%##,&=%,%#,#%#=%,+##,+",
"#,=#+##=+,=%+,%#=,#+,+=%&#,#=&,#",
"=,>%=#,%#,=%=,O&#,=%,#=##=,%%=O,",
"#%,,,,&O%,,,#%,,,%=%%,,,%%,=%#%,"
}; 	    
