/* XPM */
static char *magick[] = {
/* columns rows colors chars-per-pixel */
"16 16 9 1",
"  c Gray0",
". c #191919",
"X c #00007f",
"o c #007f00",
"O c #007f7f",
"+ c Blue",
"@ c Green",
"# c Gray100",
"$ c None",
/* pixels */
"$$$$$$O##XX$$$$$",
"$$$$.OO##+Ooo$$$",
"$$$o@O+##+O@@o$$",
"$$oOo++##+@@@Oo$",
"$o@++++##+OX+O@o",
"###++++##+@@O###",
"#O#++++##@@@@@@#",
"###++++##@@@@@##",
"++#O+++###@@@@@#",
"###@O+++###+O###",
".+@@@@+++###O@@O",
"$XO@@@X#++###@OO",
"$X+@@O+#+++##@OX",
"$$XO@++###++OX+$",
"$$$OO++#+#+++X$$",
"$$$$.++###++X$$$"
};