/* XPM */
static char * icone_xpm[] = {
"32 32 32 1",
" 	c None",
".	c #1D176B",
"+	c #241F6D",
"@	c #1A165B",
"#	c #16133F",
"$	c #131130",
"%	c #100E23",
"&	c #0A0911",
"*	c #000000",
"=	c #16134C",
"-	c #251E7F",
";	c #F4F4ED",
">	c #1E195B",
",	c #2A1ED8",
"'	c #241C8E",
")	c #2D23B2",
"!	c #2016A3",
"~	c #272260",
"{	c #2B1DF2",
"]	c #221C75",
"^	c #B6BD33",
"/	c #D8E31A",
"(	c #D8E319",
"_	c #B7BE2F",
":	c #B8BE3E",
"<	c #DDE817",
"[	c #B8BE43",
"}	c #B7BE2C",
"|	c #4A7A3D",
"1	c #4E9B39",
"2	c #C3CC1A",
"3	c #D9E517",
".+++@########$$$$$%%%%&&&&******",
"..++@@#=#@@#=######$$$$$%%%%%&&*",
"-..++@=##+@==;;;#####$$$$%%%%&&*",
"--.>+++@@+++;@@=;#=###$$$$%%%%&*",
"---,.++++.+;++@@##=####$$$$$%%%*",
"'-)-,.+>+-.;+++@@@@##=###$$$$%%*",
"!''---.++--.;+@@+++@@#==###$$$$&",
"!!,'--...--..;;+@@@@@~##==##$$$&",
",!!',---,'---..;;+@+;@@@;=#;;;;&",
",!!{!'--.!'--..>.;++;@@@;@#;=#;%",
",,!!!')--!')--.).;>+;+@@;@@;##;%",
",,,!!!'',!;''-]]];.+;>+@;@@;##;%",
",,,!{,,,,{!;'--;;]...;>;+@@;@@;$",
",{,,,^/(_,!!;;;;]]...;;;++@;@@;$",
"{{,:<<<<<<_,,],.,.+>++@@@@==###$",
"{,[<<<<<<<<},,,...>>+>>+@@@#....",
"{,<<<<<<<<<<<{,,,,!.....{{{{|||1",
"{<<<<<<<<<<<_<{{!,,!,,{|||||1111",
"<222222222<<3<<{{{{{{{1111111111",
"1|;;;;111;11111;11111;;;11;111;1",
"1;;111;11;1111;;;111;11111;11;11",
"1;1|||111;111;111;1|;||||1;11;11",
"1;1111111;111;1||;|1;11111;1;111",
";11111111;111;111;11;11111;;;111",
";11111111;||1;111;||;11111;1;111",
";1|||111|;111;111;11;11111;1;111",
";1|1111|1;111;111;11;11111;11;11",
";11111111;111;111;11;11111;11;11",
"1;1111111;111;111;11;11111;111;1",
"1;1111111;111;111;11;11111;111;1",
"1;;111;11;111;111;11;11111;1111;",
"11;;;;111;;;11;;;1111;;;11;1111;"};
