/* XPM */
static char *magick[] = {
/* columns rows colors chars-per-pixel */
"32 32 23 1",
"  c None",
". c #191919",
"X c Gray20",
"o c #00007f",
"O c #007f00",
"+ c #007f7f",
"@ c #7f0000",
"# c #7f007f",
"$ c #7f7f00",
"% c #4c4c4c",
"& c #666667",
"* c Gray50",
"= c Blue",
"- c Green",
"; c Cyan",
": c Red",
"> c Magenta",
", c Yellow",
"< c Gray60",
"1 c #b2b2b2",
"2 c Gray80",
"3 c Gray90",
"4 c Gray100",
/* pixels */
"             4o4444..           ",
"          .X44+++=4=o+.         ",
"        .-+++4--+=4=++--.       ",
"       O++++=4+4444=-O+--O      ",
"      --+++==4=4====+++---44    ",
"     -----+==4=4==++=----444    ",
"    O-+--++==4=4444+----444+-   ",
"   O---==44========+-++444--+O  ",
"  .---===444=======-+=444++---. ",
"  O++=====444======++444===+--O ",
" .+=+======444=====-444-------+o",
" ++=========444===+444------+--o",
"4444+========444=+444-------4444",
"4o+4==========444444---------++4",
"4=+4===========4444------------4",
"4444-+==========44-----------444",
"o==4--+===========-------------4",
"o==4----===========--+++------+4",
"4444----+===============+---4444",
" ==------++=============+-----==",
" o=---------=============-----=o",
" o=+--------+============----++o",
"  ==+------+=============----++o",
"  ===------+============+---+=o ",
"  .==+-----+============+---==. ",
"   o=+---+=====4444======--+=o  ",
"    ==---+=====4========+-+==   ",
"     =+--======4============    ",
"      =++======4444========     ",
"       o+======4==4======o      ",
"        .======4==4=====.       ",
"          .ooo=4444=oo          "
};
